<svg xmlns="http://www.w3.org/2000/svg" width="16" height="16" fill="currentColor" viewBox="0 0 16 16"><path d="M9.405 1.05a1 1 0 0 0-2.81 0l-.2.661a5.985 5.985 0 0 0-1.356.785l-.622-.358a1 1 0 0 0-1.366.366l-.5.866a1 1 0 0 0 .366 1.366l.622.358a5.985 5.985 0 0 0-.091 1.56l-.661.2a1 1 0 0 0 0 2.81l.661.2c.153.534.387 1.04.685 1.5l-.358.622a1 1 0 0 0 .366 1.366l.866.5a1 1 0 0 0 1.366-.366l.358-.622c.46.298.966.532 1.5.685l.2.661a1 1 0 0 0 2.81 0l.2-.661a5.985 5.985 0 0 0 1.356-.785l.622.358a1 1 0 0 0 1.366-.366l.5-.866a1 1 0 0 0-.366-1.366l-.622-.358c.054-.515.054-1.045 0-1.56l.661-.2a1 1 0 0 0 0-2.81l-.661-.2a5.985 5.985 0 0 0-.685-1.5l.358-.622a1 1 0 0 0-.366-1.366l-.866-.5a1 1 0 0 0-1.366.366l-.358.622a5.985 5.985 0 0 0-1.5-.685Z"/><circle cx="8" cy="8" r="3"/></svg>
